<svg data-v-0dd9719b="" version="1.0" xmlns="http://www.w3.org/2000/svg" xmlns:xlink="http://www.w3.org/1999/xlink" width="100%" height="100%" viewBox="0 0 340.000000 250.000000" preserveAspectRatio="xMidYMid meet" color-interpolation-filters="sRGB" style="margin: auto;"> <rect data-v-0dd9719b="" x="0" y="0" width="100%" height="100%" fill="#fff" fill-opacity="1" class="background"></rect> <rect data-v-0dd9719b="" x="0" y="0" width="100%" height="100%" fill="url(#watermark)" fill-opacity="1" class="watermarklayer"></rect> <g data-v-0dd9719b="" fill="#333" class="icon-text-wrapper icon-svg-group iconsvg" transform="translate(48.24192810058594,94.98258972625987)"><g class="iconsvg-imagesvg" transform="translate(0,0)"><g><rect fill="#333" fill-opacity="0" stroke-width="2" x="0" y="0" width="60" height="60.034820195713515" class="image-rect"></rect> <svg x="0" y="0" width="60" height="60.034820195713515" filtersec="colorsb6668408950" class="image-svg-svg primary" style="overflow: visible;"><svg xmlns="http://www.w3.org/2000/svg" viewBox="0 0.030059456825256348 24.400362014770508 24.414602279663086"><g style="isolation:isolate"><g><path d="M24.4 12.21a11.91 11.91 0 0 1-1.87 6.5.64.64 0 0 1-.42.18.3.3 0 0 1-.28-.46 5.16 5.16 0 0 0 .38-1.82s0-.63-.13-.52a1.28 1.28 0 0 0-.25.53 8.49 8.49 0 0 1-1.4 3.76 1.12 1.12 0 0 1-.89.49c-.3 0-.41-.24-.24-.52a8.49 8.49 0 0 0 1.24-3.07c.08-.48 0-.78-.1-.7a1.5 1.5 0 0 0-.28.6 10.35 10.35 0 0 1-1.79 4 1.23 1.23 0 0 1-.92.47c-.31 0-.4-.23-.21-.5a8.89 8.89 0 0 0 1.65-3.48c.1-.38.09-.62 0-.54a1.28 1.28 0 0 0-.29.52 8.52 8.52 0 0 1-1.45 3.2 1.19 1.19 0 0 1-.91.48c-.31 0-.41-.24-.23-.51a8 8 0 0 0 1.16-2.31 10.51 10.51 0 0 0 .71-3.7c-.11 1.08-.71 2.6-1.23 2.85s-.51-.05-.43-.58a15.87 15.87 0 0 1 1.45-5.14 9 9 0 0 1 1.64-2.24A6.25 6.25 0 0 1 22 8.11l1.54-.47a12.2 12.2 0 0 1 .86 4.57z" fill="#0e619e" style="mix-blend-mode:multiply"></path><path d="M16 .6a11.87 11.87 0 0 1 5.59 3.78.62.62 0 0 1 .05.46.3.3 0 0 1-.52.12A5.11 5.11 0 0 0 19.47 4s-.59-.22-.54 0a1.22 1.22 0 0 0 .42.4 8.51 8.51 0 0 1 3.15 2.5 1.13 1.13 0 0 1 .19 1c-.11.29-.36.32-.57.08a8.21 8.21 0 0 0-2.54-2.13c-.42-.23-.73-.27-.69-.13s.22.27.48.45A10.45 10.45 0 0 1 22.6 9.1a1.25 1.25 0 0 1 .16 1c-.11.3-.35.31-.55.05a9.09 9.09 0 0 0-2.79-2.65c-.33-.21-.56-.27-.52-.14s.18.26.41.43a8.53 8.53 0 0 1 2.59 2.37 1.22 1.22 0 0 1 .17 1c-.11.3-.35.32-.56.06a7.85 7.85 0 0 0-1.83-1.81 10.63 10.63 0 0 0-3.3-1.82c1 .43 2.25 1.48 2.33 2.05s-.21.47-.68.24a15.88 15.88 0 0 1-4.44-3A8.77 8.77 0 0 1 12 4.68a6.26 6.26 0 0 1-.66-3V.07A12.14 12.14 0 0 1 16 .6z" fill="#ce178c" style="mix-blend-mode:multiply"></path><path d="M2.3 5A11.92 11.92 0 0 1 7.63.88a.69.69 0 0 1 .45.1.31.31 0 0 1 0 .54 5 5 0 0 0-1.42 1.24s-.39.5-.2.5A1.3 1.3 0 0 0 7 3 8.52 8.52 0 0 1 10.32.76a1.14 1.14 0 0 1 1 .13c.24.19.19.44-.11.57A8.21 8.21 0 0 0 8.4 3.21c-.34.34-.48.62-.33.62a1.35 1.35 0 0 0 .58-.32 10.26 10.26 0 0 1 3.79-2.16 1.2 1.2 0 0 1 1 .16c.25.19.19.42-.12.53A8.93 8.93 0 0 0 10 3.89c-.3.24-.43.44-.3.44a1.18 1.18 0 0 0 .54-.25 8.38 8.38 0 0 1 3.05-1.73 1.18 1.18 0 0 1 1 .15c.24.19.19.43-.12.54a7.9 7.9 0 0 0-2.29 1.19A10.44 10.44 0 0 0 9.1 6.81c.72-.81 2.11-1.69 2.67-1.59s.38.34 0 .72a15.44 15.44 0 0 1-4.2 3.3 8.62 8.62 0 0 1-2.64.86 6.15 6.15 0 0 1-3.09-.32L.33 9.26A12.13 12.13 0 0 1 2.3 5z" fill="#ff8d08" style="mix-blend-mode:multiply"></path><path d="M2.3 19.39A11.8 11.8 0 0 1 0 13a.63.63 0 0 1 .23-.39.3.3 0 0 1 .5.21 5.08 5.08 0 0 0 .76 1.69s.35.53.41.35a1.31 1.31 0 0 0-.11-.58 8.62 8.62 0 0 1-1.08-3.83 1.15 1.15 0 0 1 .44-.91c.25-.17.47 0 .5.27a8.44 8.44 0 0 0 .8 3.19c.21.43.44.65.49.51a1.42 1.42 0 0 0-.13-.65 10.39 10.39 0 0 1-.88-4.27 1.19 1.19 0 0 1 .47-.89c.25-.18.46 0 .46.28a9.15 9.15 0 0 0 .71 3.79c.14.36.29.55.34.42a1.18 1.18 0 0 0-.08-.59 8.39 8.39 0 0 1-.7-3.44 1.19 1.19 0 0 1 .45-.92c.26-.18.47 0 .49.28a7.52 7.52 0 0 0 .42 2.54 10.34 10.34 0 0 0 1.6 3.42c-.55-.94-1-2.53-.69-3s.45-.25.7.22a15.79 15.79 0 0 1 1.84 5 8.88 8.88 0 0 1 0 2.77 6.17 6.17 0 0 1-1.25 2.84l-1 1.28a12.09 12.09 0 0 1-3.39-3.2z" fill="#cee301" style="mix-blend-mode:multiply"></path><path d="M16 23.83a11.81 11.81 0 0 1-6.75.23.66.66 0 0 1-.31-.35.3.3 0 0 1 .35-.4 4.91 4.91 0 0 0 1.85-.2s.61-.17.46-.28a1.26 1.26 0 0 0-.58-.08 8.62 8.62 0 0 1-4-.17 1.12 1.12 0 0 1-.73-.69c-.08-.3.1-.47.42-.4a8.12 8.12 0 0 0 3.3.23c.48-.07.75-.21.63-.31a1.41 1.41 0 0 0-.65-.07 10.52 10.52 0 0 1-4.34-.48 1.25 1.25 0 0 1-.73-.73c-.08-.3.1-.45.42-.36a8.84 8.84 0 0 0 3.82.5c.39 0 .61-.11.5-.19A1.16 1.16 0 0 0 9 20a8.47 8.47 0 0 1-3.49-.39 1.18 1.18 0 0 1-.73-.72c-.09-.3.09-.46.41-.38a7.65 7.65 0 0 0 2.55.39 10.32 10.32 0 0 0 3.74-.47c-1.06.24-2.69.13-3.1-.28s-.1-.5.42-.6a16.12 16.12 0 0 1 5.34-.2 8.88 8.88 0 0 1 2.64.86 6.3 6.3 0 0 1 2.31 2.07l.91 1.29a12.07 12.07 0 0 1-4 2.26z" fill="#16b6d3" style="mix-blend-mode:multiply"></path></g></g></svg></svg> <!----></g></g> <g transform="translate(67,5.523017883300781)"><g data-gra="path-name" fill-rule="" class="tp-name iconsvg-namesvg" transform="translate(0,0)"><g transform="scale(1)"><g><path d="M9.88 2.99L9.88 2.99Q10.9 3.34 11.97 2.72 13.04 2.11 13.01 1.2L13.01 1.2Q13.01 1.05 12.97 0.81L12.97 0.81Q12.9-0.11 13.57-0.26 14.24-0.42 18.42-0.42L18.42-0.42Q19.44-0.42 20.04-0.42L20.04-0.42Q20.74-0.42 21.94-0.42L21.94-0.42Q26.37-0.42 26.89-0.18L26.89-0.18Q27.25 0.04 27.21 0.84L27.21 0.84Q27.18 1.09 27.18 1.27L27.18 1.27Q27.14 2.07 27.19 2.32 27.25 2.57 27.46 2.67L27.46 2.67Q28.2 2.99 29.99 2.14L29.99 2.14Q30.69 1.83 30.76 1.6 30.83 1.37 30.73-0.46L30.73-0.46Q30.62-3.83 30.62-7.42L30.62-7.42Q30.59-12.23 30.76-12.69L30.76-12.69Q30.9-13.01 31.43-13.25L31.43-13.25Q32.24-13.68 32.01-14.12 31.78-14.55 30.13-15.82L30.13-15.82Q29.04-16.66 28.72-16.66 28.41-16.66 27.7-15.79L27.7-15.79Q27.63-15.68 27.49-15.5L27.49-15.5Q27.04-14.94 26.51-14.84L26.51-14.84Q25.8-14.7 21.69-14.7L21.69-14.7Q20.6-14.7 20-14.7L20-14.7Q14.73-14.7 13.85-14.75 12.97-14.8 12.62-15.15L12.62-15.15Q12.3-15.43 12.41-15.79 12.52-16.14 13.43-17.58L13.43-17.58Q15.12-20.25 16.56-23.8L16.56-23.8Q17.12-25.21 17.54-25.52L17.54-25.52Q17.72-25.66 25.63-25.7L25.63-25.7Q31.82-25.73 32.8-25.77 33.79-25.8 33.93-26.05L33.93-26.05Q34.21-26.61 31.22-28.86L31.22-28.86Q30.3-29.57 30.04-29.5 29.78-29.43 28.97-28.34L28.97-28.34Q27.88-26.89 27.53-26.79L27.53-26.79Q27.25-26.72 16.35-26.72L16.35-26.72Q4.92-26.72 2.67-26.89L2.67-26.89Q2.21-26.93 2.18-26.82 2.14-26.72 2.53-26.02L2.53-26.02Q2.88-25.35 3.04-25.28 3.2-25.21 4.01-25.35L4.01-25.35Q6.33-25.66 9.6-25.66L9.6-25.66Q9.74-25.66 9.95-25.66L9.95-25.66Q12.38-25.66 12.67-25.35 12.97-25.03 12.3-23.06L12.3-23.06Q12.27-22.89 12.23-22.82L12.23-22.82Q10.79-18.53 8.28-14.34 5.77-10.16 2.67-6.96L2.67-6.96Q1.86-6.12 1.76-5.96 1.65-5.8 1.76-5.7L1.76-5.7Q2-5.48 3.9-6.96 5.8-8.44 8.02-10.58L8.02-10.58Q8.82-11.36 9.09-11.5 9.35-11.64 9.53-11.36L9.53-11.36Q9.7-11.11 9.69-7.21 9.67-3.3 9.46-0.04L9.46-0.04Q9.35 1.97 9.4 2.39 9.46 2.81 9.88 2.99ZM26.75-1.55L26.75-1.55Q26.47-1.41 20.11-1.42 13.75-1.44 13.46-1.58L13.46-1.58Q13.15-1.72 13.08-1.97L13.08-1.97Q12.97-2.43 12.97-7.59L12.97-7.59Q12.97-11.95 13.03-12.66 13.08-13.36 13.39-13.57L13.39-13.57Q13.64-13.75 20.13-13.71 26.61-13.68 26.86-13.5L26.86-13.5Q27.18-13.29 27.23-12.55 27.28-11.81 27.28-7.42L27.28-7.42Q27.25-2.14 27.11-1.79L27.11-1.79Q27.04-1.69 26.75-1.55ZM51.36 2.99L51.36 2.99Q51.47 3.06 52.33 3.01 53.19 2.95 53.72 2.81L53.72 2.81Q55.27 2.46 56.18 1.05 57.09-0.35 57.25-2.37 57.41-4.39 57.01-6.64 56.6-8.89 55.48-11.16 54.35-13.43 52.7-15.12L52.7-15.12Q51.75-16.07 51.77-16.42 51.79-16.77 52.8-17.47L52.8-17.47Q53.33-17.89 54.14-18.42L54.14-18.42Q55.13-19.13 55.41-19.05L55.41-19.05Q55.65-18.98 55.76-18.76 55.86-18.53 56.04-17.54L56.04-17.54Q58.22-6.33 65.36-0.56L65.36-0.56Q66.34 0.21 66.57 0.32 66.8 0.42 66.9 0.21L66.9 0.21Q67.89-1.72 69.5-2.14L69.5-2.14Q70.17-2.36 69.86-2.6L69.86-2.6Q69.68-2.74 69.12-3.06L69.12-3.06Q64.48-5.45 61.42-9.14L61.42-9.14Q60.4-10.34 60.49-10.78 60.57-11.21 62.05-11.99L62.05-11.99Q64.62-13.32 66.23-14.38L66.23-14.38Q67.57-15.26 67.92-15.26L67.92-15.26Q69.29-15.26 65.11-18.11L65.11-18.11Q64.69-18.42 64.6-18.37 64.51-18.32 64.16-17.65L64.16-17.65Q63.21-15.89 61.68-14.06 60.15-12.23 59.66-12.23 59.17-12.23 58.29-13.94 57.41-15.64 56.71-17.93L56.71-17.93Q56.67-18 56.64-18.11L56.64-18.11Q56.43-18.95 56.67-19.13L56.67-19.13Q57.06-19.34 60.4-19.37L60.4-19.37 61.03-19.37Q64.02-19.41 64.53-19.42 65.04-19.44 65.18-19.58L65.18-19.58Q65.36-19.72 65.34-19.83 65.32-19.93 65.04-20.21L65.04-20.21Q64.58-20.71 64.78-21.08 64.97-21.45 66.06-22.18L66.06-22.18Q67.36-23.06 67.57-23.2L67.57-23.2Q68.63-24.01 69.15-24.12L69.15-24.12Q69.93-24.29 69.71-24.75L69.71-24.75Q69.54-25.17 68.34-26.37L68.34-26.37Q67.25-27.46 66.92-27.51 66.59-27.56 65.81-26.72L65.81-26.72Q65.14-25.98 64.83-25.88L64.83-25.88Q64.2-25.7 60.29-25.7L60.29-25.7Q56.92-25.73 56.36-25.8 55.79-25.88 55.69-26.3L55.69-26.3Q55.65-26.4 55.65-26.44L55.65-26.44Q55.34-27.81 56.18-28.62L56.18-28.62Q56.39-28.79 56.44-28.9 56.5-29 56.39-29.13 56.29-29.25 56.02-29.37 55.76-29.5 55.23-29.67L55.23-29.67Q52.38-30.48 52.03-30.2L52.03-30.2Q52.17-29.81 52.21-28.09 52.24-26.37 52.1-26.12L52.1-26.12Q51.93-25.8 51.38-25.75 50.84-25.7 47.6-25.7L47.6-25.7Q43.91-25.73 43.52-25.91L43.52-25.91Q43.17-26.05 43.03-26.75L43.03-26.75Q43-26.93 42.96-27.04L42.96-27.04Q42.68-28.23 42.4-28.13L42.4-28.13Q42.22-28.05 42.15-27.46L42.15-27.46Q41.87-24.57 39.52-22.78L39.52-22.78Q38.43-21.97 38.27-21.02 38.11-20.07 38.99-19.55L38.99-19.55Q40.25-18.77 41.59-19.97 42.93-21.16 43.21-23.31L43.21-23.31Q43.24-23.45 43.24-23.7L43.24-23.7Q43.28-24.43 44.21-24.56 45.14-24.68 50.77-24.68L50.77-24.68Q52.8-24.68 54.04-24.68L54.04-24.68Q63.07-24.68 63.98-24.5L63.98-24.5Q64.69-24.4 64.69-24.05L64.69-24.05Q64.69-23.98 64.3-23.06L64.3-23.06Q63.91-22.11 63.51-22.03 63.11-21.94 62.3-22.61L62.3-22.61Q62.12-22.78 61.98-22.66 61.84-22.54 61.21-21.73L61.21-21.73Q61.1-21.59 60.93-21.38L60.93-21.38Q60.43-20.71 59.94-20.57L59.94-20.57Q59.27-20.39 55.37-20.39L55.37-20.39Q54-20.39 53.19-20.39L53.19-20.39Q45.6-20.39 43.49-20.57L43.49-20.57Q43.03-20.64 43.03-20.5L43.03-20.5Q43.03-20.36 43.31-19.72L43.31-19.72Q43.59-19.05 43.75-18.95 43.91-18.84 44.37-18.98L44.37-18.98Q45.49-19.2 47.2-19.32 48.9-19.44 49.25-19.3L49.25-19.3Q50.03-19.05 49.29-18.32L49.29-18.32Q48.9-17.96 48.09-17.33L48.09-17.33Q46.16-15.86 44.6-14.94 43.03-14.03 39.59-12.34L39.59-12.34Q39.16-12.13 39.52-11.92L39.52-11.92Q39.87-11.74 43.07-12.85 46.27-13.96 48.73-15.12L48.73-15.12Q50.06-15.79 50.59-15.77 51.12-15.75 51.12-15.05L51.12-15.05Q51.12-14.06 47.76-11.46 44.4-8.86 40.78-7.03L40.78-7.03Q39.06-6.15 39.06-5.98L39.06-5.98Q39.06-5.91 39.16-5.8L39.16-5.8Q39.38-5.73 41.41-6.36L41.41-6.36Q46.34-7.95 51.01-10.58L51.01-10.58Q52.03-11.18 52.42-11.27 52.8-11.36 53.02-11.07L53.02-11.07Q53.68-10.3 51.7-8.3 49.71-6.29 46.18-4.06 42.64-1.83 39.13-0.42L39.13-0.42Q37.9 0.07 37.9 0.25L37.9 0.25Q37.9 0.28 37.97 0.39L37.97 0.39Q38.11 0.6 40.15 0.07L40.15 0.07Q46.72-1.72 52-4.89L52-4.89Q52.63-5.27 52.96-5.45 53.3-5.63 53.58-5.7 53.86-5.77 53.91-5.57 53.96-5.38 54.04-5.08 54.11-4.78 54.04-4.22L54.04-4.22Q53.96-1.55 53.21-0.93 52.45-0.32 49.43-0.53L49.43-0.53Q48.76-0.6 48.41-0.62 48.06-0.63 47.87-0.62 47.67-0.6 47.64-0.56 47.6-0.53 47.6-0.42L47.6-0.42Q47.6-0.28 47.69-0.25 47.78-0.21 48.27-0.07L48.27-0.07Q51.01 0.67 51.22 2.57L51.22 2.57Q51.29 2.92 51.36 2.99ZM74 2.78L74 2.78Q74.21 3.02 74.92 2.37 75.62 1.72 76.5 0.51 77.38-0.7 77.98-1.93L77.98-1.93Q79.49-4.99 80.03-8.54 80.58-12.09 80.58-19.13L80.58-19.13Q80.58-22.01 80.63-22.5 80.68-22.99 81.07-23.17L81.07-23.17Q81.39-23.34 93.38-23.34L93.38-23.34Q94.39-23.34 96.19-23.34L96.19-23.34Q103.43-23.34 104.64-23.38 105.86-23.41 105.96-23.66L105.96-23.66Q106-23.7 106-23.73L106-23.73Q106.21-24.22 103.85-26.19L103.85-26.19Q102.87-27 102.66-26.96L102.66-26.96Q102.38-26.93 101.67-25.91L101.67-25.91Q101.57-25.73 101.5-25.63L101.5-25.63Q100.86-24.71 100.62-24.61L100.62-24.61Q100.16-24.36 97.45-24.36L97.45-24.36Q97-24.36 96.68-24.36L96.68-24.36Q96.36-24.36 95.84-24.36L95.84-24.36Q93.3-24.36 92.9-24.57 92.5-24.79 92.53-26.12L92.53-26.12Q92.53-26.44 92.53-26.65L92.53-26.65Q92.57-27.67 92.65-27.97 92.74-28.27 93.13-28.62L93.13-28.62Q93.69-29.11 92.53-29.53L92.53-29.53Q91.83-29.81 90.28-30.16L90.28-30.16Q89.19-30.41 89.09-30.3 88.98-30.2 89.09-29.07L89.09-29.07Q89.37-25.8 89.26-25.31L89.26-25.31Q89.12-24.5 88.07-24.4L88.07-24.4Q87.61-24.33 84.94-24.33L84.94-24.33Q81.67-24.33 81.18-24.4 80.68-24.47 78.82-25.28L78.82-25.28Q77.24-25.95 77.13-25.84L77.13-25.84Q77.1-25.77 77.13-25.24L77.13-25.24Q77.34-22.5 77.33-17.24 77.31-11.99 77.06-9.25L77.06-9.25Q76.5-2.64 74.43 1.65L74.43 1.65Q73.93 2.71 74 2.78ZM79.35 1.55L79.35 1.55Q79.56 2.04 79.65 2.14 79.73 2.25 79.95 2.3 80.16 2.36 80.54 2.21L80.54 2.21Q82.02 1.97 83.69 1.93 85.36 1.9 94.18 1.86L94.18 1.86Q105.22 1.83 105.71 1.69L105.71 1.69Q105.82 1.65 105.89 1.41L105.89 1.41Q106.07 0.88 103.85-0.98L103.85-0.98Q103.15-1.58 102.9-1.67 102.66-1.76 102.45-1.6 102.23-1.44 101.67-0.63L101.67-0.63Q100.86 0.6 100.44 0.74 100.02 0.88 97.45 0.88L97.45 0.88Q97.03 0.88 96.36 0.88L96.36 0.88Q94.54 0.95 94.24 0.42 93.94-0.11 93.97-3.3L93.97-3.3Q93.97-4.61 93.97-5.38L93.97-5.38Q93.97-6.19 93.97-7.26 93.97-8.33 93.94-8.75 93.9-9.18 93.97-9.81 94.04-10.44 94.04-10.6 94.04-10.76 94.32-11.07 94.61-11.39 94.73-11.39 94.85-11.39 95.4-11.5 95.94-11.6 96.29-11.57 96.64-11.53 97.56-11.53 98.47-11.53 99.14-11.53L99.14-11.53Q102.94-11.57 103.59-11.62 104.24-11.67 104.27-12.06L104.27-12.06Q104.34-12.66 101.95-14.52L101.95-14.52Q101.21-15.12 100.99-15.06 100.76-15.01 100.16-14.13L100.16-14.13Q99.32-12.9 98.89-12.71 98.47-12.52 96.57-12.52L96.57-12.52Q96.36-12.52 95.98-12.52L95.98-12.52Q94.46-12.48 94.22-12.85 93.97-13.22 93.97-15.43L93.97-15.43Q93.97-16.1 93.97-16.49L93.97-16.49Q94.01-19.16 94.08-19.63 94.15-20.11 94.5-20.39L94.5-20.39Q95.2-20.88 93.45-21.45L93.45-21.45Q92.67-21.73 91.34-22.04L91.34-22.04Q90.46-22.25 90.35-22.18 90.25-22.11 90.32-21.41L90.32-21.41Q90.56-19.65 90.63-16.49 90.7-13.32 90.53-13.04L90.53-13.04Q90.32-12.66 89.84-12.59 89.37-12.52 86.98-12.55L86.98-12.55Q83.67-12.59 81.98-12.8L81.98-12.8Q81.67-12.87 81.7-12.62L81.7-12.62Q81.74-12.41 82.02-11.81L82.02-11.81Q82.05-11.74 82.13-11.6L82.13-11.6Q82.3-11.18 82.48-11.14 82.65-11.11 83.5-11.21L83.5-11.21Q83.81-11.25 83.99-11.29L83.99-11.29Q85.68-11.5 87.8-11.55 89.93-11.6 90.21-11.43L90.21-11.43Q90.53-11.21 90.58-10.51 90.63-9.81 90.63-5.38L90.63-5.38Q90.63 0.11 90.49 0.49L90.49 0.49Q90.42 0.63 90.14 0.77L90.14 0.77Q89.82 0.95 85.22 0.86 80.61 0.77 79.31 0.6L79.31 0.6Q79 0.53 79.03 0.74L79.03 0.74Q79.03 0.95 79.35 1.55ZM119.64 2.95L119.64 2.95Q120.23 3.09 121.25 2.71 122.27 2.32 122.38 1.9L122.38 1.9Q122.41 1.79 122.34-0.39L122.34-0.39Q122.17-6.01 122.41-6.5L122.41-6.5Q122.55-6.79 122.87-7.01 123.19-7.24 124.63-7.95L124.63-7.95Q126.28-8.79 126.28-8.93L126.28-8.93Q126.28-9.04 126.23-9.07 126.18-9.11 126-9.09 125.82-9.07 125.51-9 125.19-8.93 124.63-8.79L124.63-8.79Q124.35-8.72 123.89-8.58L123.89-8.58Q122.87-8.26 122.63-8.58L122.63-8.58Q122.27-9.04 122.27-12.87L122.27-12.87Q122.27-13.36 122.27-14.52L122.27-14.52Q122.27-16.38 122.27-17.51L122.27-17.51Q122.27-18.67 122.27-20.53L122.27-20.53Q122.24-25.59 122.52-26.26L122.52-26.26Q122.7-26.75 123.43-26.72L123.43-26.72Q123.5-26.72 123.64-26.72L123.64-26.72Q124.03-26.72 124.28-26.72L124.28-26.72Q126.07-26.75 126.04-27.32L126.04-27.32Q126-27.88 123.96-29.39L123.96-29.39Q123.08-30.02 122.84-29.99 122.59-29.95 121.89-29.07L121.89-29.07Q121.04-27.95 120.52-27.81L120.52-27.81Q120.23-27.74 115.82-27.77 111.41-27.81 110.46-27.88L110.46-27.88Q109.62-27.95 109.55-27.86 109.48-27.77 109.76-27.14 110.04-26.51 110.16-26.4 110.29-26.3 110.5-26.44L110.5-26.44Q110.92-26.68 111.36-26.6 111.8-26.51 111.94-26.16L111.94-26.16Q112.08-25.84 112.06-16.1 112.04-6.36 111.9-6.08L111.9-6.08Q111.73-5.63 110.46-5.34L110.46-5.34Q109.79-5.2 109.72-5.03L109.72-5.03Q109.69-4.85 110.21-3.23L110.21-3.23Q110.85-1.34 111.06-1.3L111.06-1.3Q111.16-1.27 111.52-1.72L111.52-1.72Q112.08-2.39 115.47-3.8 118.86-5.2 119.11-4.85L119.11-4.85Q119.57-4.29 119.21 0.67L119.21 0.67Q119.11 2.11 119.18 2.48 119.25 2.85 119.64 2.95ZM117.25-6.93L117.25-6.93Q115.42-6.5 115.15-6.86 114.89-7.21 114.93-9.84L114.93-9.84Q114.96-11.92 115.19-12.22 115.42-12.52 117.14-12.52 118.86-12.52 119.11-12.23 119.36-11.95 119.36-9.95L119.36-9.95Q119.36-8.02 119.11-7.66 118.86-7.31 117.25-6.93ZM118.93-13.71L118.93-13.71Q118.72-13.54 117.14-13.54L117.14-13.54Q117.04-13.54 116.82-13.54L116.82-13.54Q115.38-13.54 115.15-13.87 114.93-14.2 114.93-16.24L114.93-16.24Q114.93-16.59 114.93-16.8L114.93-16.8Q114.96-19.16 115.19-19.48 115.42-19.79 117.14-19.79L117.14-19.79Q118.9-19.79 119.13-19.48 119.36-19.16 119.39-16.8L119.39-16.8Q119.39-14.87 119.32-14.38 119.25-13.89 118.93-13.71ZM118.93-20.99L118.93-20.99Q118.72-20.81 117.14-20.81L117.14-20.81Q117.04-20.81 116.86-20.81L116.86-20.81Q115.42-20.81 115.17-21.13 114.93-21.45 114.93-23.38L114.93-23.38Q114.93-23.73 114.93-23.91L114.93-23.91Q114.96-26.09 115.19-26.4 115.42-26.72 117.14-26.72 118.86-26.72 119.11-26.4 119.36-26.09 119.39-23.91L119.39-23.91Q119.39-22.15 119.3-21.66 119.21-21.16 118.93-20.99ZM122.7 2.88L122.7 2.88Q122.84 3.02 123.86 2.53L123.86 2.53Q127.48 0.7 129.67-1.88 131.87-4.46 132.96-8.16L132.96-8.16Q133.42-9.81 133.7-9.81L133.7-9.81Q133.98-9.81 134.47-7.49L134.47-7.49Q135.77-1.51 139.04 1.9L139.04 1.9Q139.89 2.74 140.03 2.64L140.03 2.64Q140.06 2.6 140.17 2.32L140.17 2.32Q140.34 1.65 140.98 0.9 141.61 0.14 142.1-0.07L142.1-0.07Q142.42-0.21 142.49-0.33 142.56-0.46 142.42-0.62 142.28-0.77 141.86-0.98L141.86-0.98Q139.64-2.14 137.72-4.71 135.81-7.28 134.72-10.51L134.72-10.51Q134.68-10.58 134.65-10.72L134.65-10.72Q134.3-11.74 134.54-11.95L134.54-11.95Q134.86-12.2 137.85-12.23L137.85-12.23 138.34-12.23Q141.08-12.27 141.59-12.32 142.1-12.38 142.24-12.62L142.24-12.62Q142.42-12.87 141.75-13.62 141.08-14.38 139.96-15.22L139.96-15.22Q139.18-15.82 138.96-15.75 138.73-15.68 138.02-14.7L138.02-14.7Q137.25-13.64 136.93-13.46 136.62-13.29 135.53-13.29L135.53-13.29Q135.39-13.29 135.14-13.29L135.14-13.29Q134.12-13.29 133.95-13.57L133.95-13.57Q133.73-13.92 133.7-16.31L133.7-16.31Q133.7-16.8 133.7-17.09L133.7-17.09Q133.7-17.54 133.7-18.32L133.7-18.32Q133.66-20.53 134.02-20.88 134.37-21.23 136.51-21.23L136.51-21.23Q137.25-21.23 137.67-21.23L137.67-21.23Q140.34-21.27 140.8-21.32 141.26-21.38 141.43-21.62 141.61-21.87 140.92-22.66 140.24-23.45 139.18-24.26L139.18-24.26Q138.52-24.75 138.3-24.66 138.09-24.57 137.39-23.63L137.39-23.63Q136.76-22.75 136.39-22.48 136.02-22.22 135.39-22.25L135.39-22.25Q134.96-22.29 134.79-22.38 134.61-22.46 134.63-22.69 134.65-22.92 134.86-23.24 135.07-23.55 135.53-24.12L135.53-24.12Q136.65-25.56 137.71-27.07L137.71-27.07Q138.66-28.48 139.15-28.69L139.15-28.69Q139.85-29.04 138.62-29.5L138.62-29.5Q137.88-29.78 136.13-30.23L136.13-30.23Q135.14-30.52 135-30.45 134.86-30.38 134.79-29.53L134.79-29.53Q134.58-27.14 133.95-24.91 133.31-22.68 132.82-22.43L132.82-22.43Q132.43-22.25 129.64-22.27 126.84-22.29 124.98-22.46L124.98-22.46Q124.35-22.5 124.31-22.39 124.28-22.29 124.66-21.59L124.66-21.59Q124.98-20.92 125.16-20.87 125.33-20.81 126.32-21.02L126.32-21.02Q127.44-21.23 128.06-21.34 128.67-21.45 129.23-21.36 129.8-21.27 130.01-21.06 130.22-20.85 130.39-20.25 130.57-19.65 130.59-18.98 130.61-18.32 130.61-17.05L130.61-17.05Q130.61-16.84 130.61-16.45L130.61-16.45Q130.57-13.89 130.32-13.54L130.32-13.54Q130.11-13.25 129.13-13.25L129.13-13.25Q128.92-13.25 128.81-13.25L128.81-13.25Q125.86-13.25 123.68-13.46L123.68-13.46Q123.05-13.5 123.01-13.39 122.98-13.29 123.33-12.59L123.33-12.59Q123.68-11.92 123.86-11.87 124.03-11.81 125.23-12.02L125.23-12.02Q128.18-12.48 129.32-12.2 130.46-11.92 130.32-10.72L130.32-10.72Q129.48-2.88 123.19 2.11L123.19 2.11Q122.48 2.64 122.7 2.88ZM129.3-23.17L129.3-23.17Q130.11-22.92 130.62-23.54 131.13-24.15 131.1-25.19 131.06-26.23 130.43-27.18L130.43-27.18Q129.52-28.55 127.55-29.64L127.55-29.64Q126.14-30.41 126.14-29.85L126.14-29.85Q126.14-29.67 126.35-29.36L126.35-29.36Q128-26.79 128.39-24.22L128.39-24.22Q128.46-23.73 128.65-23.52 128.85-23.31 129.3-23.17ZM145.9 2.99L145.9 2.99Q146.11 3.23 147.13 2.21L147.13 2.21Q149.55-0.18 150.82-3.23 152.09-6.29 152.51-10.83L152.51-10.83Q152.58-11.36 152.65-17.44L152.65-17.44Q152.68-23.2 152.82-23.38L152.82-23.38Q152.86-23.41 152.89-23.48L152.89-23.48Q153.04-23.73 154.3-23.78 155.57-23.84 163.05-23.84L163.05-23.84Q164.64-23.84 165.55-23.84L165.55-23.84Q166.57-23.84 168.36-23.84L168.36-23.84Q175.68-23.84 176.91-23.87 178.14-23.91 178.21-24.15L178.21-24.15Q178.21-24.19 178.21-24.22L178.21-24.22Q178.35-24.64 176.73-26.09 175.11-27.53 174.73-27.32L174.73-27.32Q174.48-27.14 173.46-25.63L173.46-25.63Q173.04-25 172.6-24.93 172.16-24.86 169.31-24.86L169.31-24.86Q166.15-24.89 165.9-25.07L165.9-25.07Q165.73-25.17 166.08-25.91L166.08-25.91Q166.71-27.25 165.38-28.56 164.04-29.88 161.54-30.38L161.54-30.38Q160.17-30.62 160.17-30.38L160.17-30.38Q160.21-30.23 160.56-29.81L160.56-29.81Q161.86-28.37 162.63-26.91 163.41-25.45 163.09-25.07L163.09-25.07Q162.74-24.57 157.66-24.82 152.58-25.07 151.21-25.63L151.21-25.63Q149.24-26.47 149.2-26.23L149.2-26.23Q149.17-26.19 149.2-26.05L149.2-26.05Q149.45-24.29 149.45-17.37 149.45-10.44 149.13-7.63L149.13-7.63Q148.46-1.83 146.36 1.86L146.36 1.86Q145.83 2.92 145.9 2.99ZM151.07 2.14L151.07 2.14Q150.29 2.57 150.29 2.74L150.29 2.74Q150.29 3.06 151.56 2.57L151.56 2.57Q156.45 0.67 159.56-2.32 162.67-5.31 164.21-9.7L164.21-9.7Q164.64-10.86 164.88-11.2 165.13-11.53 165.36-11.25 165.59-10.97 165.94-9.91L165.94-9.91Q168.71-1.51 174.52 2.36L174.52 2.36Q175.39 2.88 175.39 2.57L175.39 2.57Q175.39 2.04 176.17 1.09 176.94 0.14 177.71-0.25L177.71-0.25Q178.21-0.49 178.21-0.72 178.21-0.95 177.71-1.09L177.71-1.09Q173.99-2.21 170.68-5.47 167.38-8.72 166.08-12.59L166.08-12.59Q165.76-13.57 165.87-13.75L165.87-13.75Q166.11-14.13 168.93-14.17L168.93-14.17Q169.24-14.17 171.35-14.17L171.35-14.17Q176.84-14.2 176.94-14.66L176.94-14.66Q177.01-14.98 176.08-15.87 175.15-16.77 173.88-17.58L173.88-17.58Q173.36-17.93 173.11-17.79 172.86-17.65 171.95-16.45L171.95-16.45Q171.21-15.47 170.82-15.33 170.44-15.19 168.54-15.19L168.54-15.19Q166.39-15.19 166.06-15.45 165.73-15.71 165.9-17.16L165.9-17.16Q165.9-17.26 166.08-19.13L166.08-19.13Q166.18-20.5 166.32-20.99 166.46-21.48 166.78-21.55L166.78-21.55Q166.92-21.59 167.12-21.76 167.31-21.94 167.4-22.11 167.48-22.29 167.41-22.32L167.41-22.32Q167.34-22.39 165.45-22.54 163.55-22.68 162.84-22.68L162.84-22.68Q162.53-22.68 162.46-22.32 162.39-21.97 162.42-20.07L162.42-20.07Q162.46-17.26 162.33-16.4 162.21-15.54 161.79-15.29L161.79-15.29Q161.54-15.15 158.38-15.21 155.21-15.26 153.98-15.43L153.98-15.43Q153.7-15.5 153.7-15.33 153.7-15.15 154.02-14.52L154.02-14.52Q154.37-13.75 154.51-13.75L154.51-13.75Q154.62-13.75 155.6-13.89L155.6-13.89Q157.46-14.17 159.4-14.2 161.33-14.24 161.65-13.99L161.65-13.99Q161.93-13.75 161.88-13.11 161.82-12.48 161.33-10.72L161.33-10.72Q158.84-2.21 151.07 2.14Z" transform="translate(-1.7050000429153442, 30.5)"></path></g> <!----> <!----> <!----> <!----> <!----> <!----> <!----></g></g> <g data-gra="path-slogan" fill-rule="" class="tp-slogan iconsvg-slogansvg" fill="#333" transform="translate(14.897247314453125,39.61628723144531)"><!----> <!----> <g transform="scale(1, 1)"><g transform="scale(1)"><path d="M7.17-6.09L7.17-6.09L6.09-6.09Q6-7.73 3.94-7.83L3.94-7.83Q2.02-7.78 2.02-6.33L2.02-6.33Q2.02-5.39 3.05-5.25L3.05-5.25L5.48-4.69Q7.41-4.22 7.41-2.34L7.41-2.34Q7.36 0.05 4.03 0.14L4.03 0.14Q2.20 0.14 1.45-0.61L1.45-0.61Q0.52-1.31 0.56-2.77L0.56-2.77L1.69-2.77Q1.73-0.80 4.03-0.75L4.03-0.75Q6.28-0.80 6.33-2.20L6.33-2.20Q6.52-3.38 4.45-3.75L4.45-3.75L2.67-4.13Q0.84-4.64 0.84-6.19L0.84-6.19Q0.98-8.72 3.84-8.81L3.84-8.81Q7.08-8.81 7.17-6.09ZM10.03-5.06L14.53-5.06L14.53-8.58L15.70-8.58L15.70 0L14.53 0L14.53-3.98L10.03-3.98L10.03 0L8.86 0L8.86-8.58L10.03-8.58L10.03-5.06ZM17.67-8.58L18.84-8.58L18.84 0L17.67 0L17.67-8.58ZM20.11-1.92L20.11-2.77L21.19-2.77L21.19-2.16Q21.19-0.75 22.50-0.75L22.50-0.75Q23.86-0.75 23.86-2.25L23.86-2.25L23.86-8.58L25.03-8.58L25.03-2.30Q24.98 0.09 22.55 0.14L22.55 0.14Q20.25 0.09 20.11-1.92L20.11-1.92ZM27-8.58L28.17-8.58L28.17 0L27 0L27-8.58ZM35.81 0L34.97-2.48L31.50-2.48L30.61 0L29.44 0L32.67-8.58L33.98-8.58L37.08 0L35.81 0ZM33.23-7.31L31.88-3.52L34.55-3.52L33.28-7.31L33.23-7.31ZM38.95-1.03L44.25-1.03L44.25 0L37.50 0L37.50-0.94L42.75-7.59L37.88-7.59L37.88-8.58L44.25-8.58L44.25-7.59L38.95-1.03ZM46.55-5.06L51.05-5.06L51.05-8.58L52.22-8.58L52.22 0L51.05 0L51.05-3.98L46.55-3.98L46.55 0L45.38 0L45.38-8.58L46.55-8.58L46.55-5.06ZM59.67-3.19L59.67-8.58L60.84-8.58L60.84-3.05Q60.70 0.05 57.33 0.14L57.33 0.14Q54.19 0.05 54.05-2.86L54.05-2.86L54.05-8.58L55.22-8.58L55.22-3.19Q55.27-0.84 57.38-0.80L57.38-0.80Q59.67-0.84 59.67-3.19L59.67-3.19ZM68.30 0L67.45-2.48L63.98-2.48L63.09 0L61.92 0L65.16-8.58L66.47-8.58L69.56 0L68.30 0ZM65.72-7.31L64.36-3.52L67.03-3.52L65.77-7.31L65.72-7.31ZM72-8.58L76.31-1.64L76.31-8.58L77.44-8.58L77.44 0L76.13 0L71.77-6.94L71.72-6.94L71.72 0L70.59 0L70.59-8.58L72-8.58ZM85.64-3.61L83.02-3.61L83.02-4.59L86.77-4.59L86.77 0L86.02 0L85.73-1.08Q84.75 0.09 82.92 0.14L82.92 0.14Q81.19 0.14 80.25-0.75L80.25-0.75Q78.84-2.06 78.89-4.36L78.89-4.36Q79.22-8.63 82.97-8.81L82.97-8.81Q86.16-8.63 86.63-6L86.63-6L85.50-6Q85.03-7.78 82.92-7.83L82.92-7.83Q80.25-7.64 80.11-4.31L80.11-4.31Q80.11-0.75 82.97-0.75L82.97-0.75Q84-0.75 84.75-1.31L84.75-1.31Q85.69-2.06 85.64-3.61L85.64-3.61ZM91.88-8.58L93.05-8.58L93.05-1.03L97.41-1.03L97.41 0L91.88 0L91.88-8.58ZM98.72-8.58L99.89-8.58L99.89 0L98.72 0L98.72-8.58ZM107.53 0L106.69-2.48L103.22-2.48L102.33 0L101.16 0L104.39-8.58L105.70-8.58L108.80 0L107.53 0ZM104.95-7.31L103.59-3.52L106.27-3.52L105-7.31L104.95-7.31ZM111.23-8.58L115.55-1.64L115.55-8.58L116.67-8.58L116.67 0L115.36 0L111-6.94L110.95-6.94L110.95 0L109.83 0L109.83-8.58L111.23-8.58ZM123.47-1.08L122.58-1.78L123.19-2.48L124.27-1.64Q125.25-2.63 125.25-4.27L125.25-4.27Q125.06-7.64 122.25-7.83L122.25-7.83Q119.39-7.69 119.25-4.27L119.25-4.27Q119.39-0.94 122.25-0.80L122.25-0.80Q122.95-0.80 123.47-1.08L123.47-1.08ZM125.20-0.94L126.33-0.05L125.77 0.56L124.45-0.33Q123.61 0.14 122.25 0.14L122.25 0.14Q118.31 0 118.03-4.27L118.03-4.27Q118.27-8.72 122.25-8.81L122.25-8.81Q126.14-8.67 126.42-4.27L126.42-4.27Q126.38-2.20 125.20-0.94L125.20-0.94ZM127.97-8.58L129.14-8.58L129.14 0L127.97 0L127.97-8.58ZM132.52-8.58L136.83-1.64L136.83-8.58L137.95-8.58L137.95 0L136.64 0L132.28-6.94L132.23-6.94L132.23 0L131.11 0L131.11-8.58L132.52-8.58ZM146.16-3.61L143.53-3.61L143.53-4.59L147.28-4.59L147.28 0L146.53 0L146.25-1.08Q145.27 0.09 143.44 0.14L143.44 0.14Q141.70 0.14 140.77-0.75L140.77-0.75Q139.36-2.06 139.41-4.36L139.41-4.36Q139.73-8.63 143.48-8.81L143.48-8.81Q146.67-8.63 147.14-6L147.14-6L146.02-6Q145.55-7.78 143.44-7.83L143.44-7.83Q140.77-7.64 140.63-4.31L140.63-4.31Q140.63-0.75 143.48-0.75L143.48-0.75Q144.52-0.75 145.27-1.31L145.27-1.31Q146.20-2.06 146.16-3.61L146.16-3.61Z" transform="translate(-0.5602678571428572, 8.8125)"></path></g></g></g></g></g><defs v-gra="od"></defs></svg>